<!DOCTYPE svg PUBLIC "-//W3C//DTD SVG 1.1//EN" "http://www.w3.org/Graphics/SVG/1.1/DTD/svg11.dtd">
<!-- Uploaded to: SVG Repo, www.svgrepo.com, Transformed by: SVG Repo Mixer Tools -->
<svg fill="#ffffff" width="64px" height="64px" viewBox="-12 -12 48.00 48.00" xmlns="http://www.w3.org/2000/svg" stroke="#ffffff">
<g id="SVGRepo_bgCarrier" stroke-width="0"/>
<g id="SVGRepo_tracerCarrier" stroke-linecap="round" stroke-linejoin="round"/>
<g id="SVGRepo_iconCarrier"> <g id="Pause_1" data-name="Pause 1"> <g> <path d="M8.25,21.937H6.564a2.5,2.5,0,0,1-2.5-2.5V4.563a2.5,2.5,0,0,1,2.5-2.5H8.25a2.5,2.5,0,0,1,2.5,2.5V19.437A2.5,2.5,0,0,1,8.25,21.937ZM6.564,3.063a1.5,1.5,0,0,0-1.5,1.5V19.437a1.5,1.5,0,0,0,1.5,1.5H8.25a1.5,1.5,0,0,0,1.5-1.5V4.563a1.5,1.5,0,0,0-1.5-1.5Z"/> <path d="M17.436,21.937H15.75a2.5,2.5,0,0,1-2.5-2.5V4.563a2.5,2.5,0,0,1,2.5-2.5h1.686a2.5,2.5,0,0,1,2.5,2.5V19.437A2.5,2.5,0,0,1,17.436,21.937ZM15.75,3.063a1.5,1.5,0,0,0-1.5,1.5V19.437a1.5,1.5,0,0,0,1.5,1.5h1.686a1.5,1.5,0,0,0,1.5-1.5V4.563a1.5,1.5,0,0,0-1.5-1.5Z"/> </g> </g> </g>
</svg>